<svg xmlns="http://www.w3.org/2000/svg" xmlns:xlink="http://www.w3.org/1999/xlink" viewBox="0 0 33.39 27.9"><defs><linearGradient id="linear-gradient" x1="-0.98" y1="24.04" x2="41.24" y2="24.04" gradientUnits="userSpaceOnUse"><stop offset="0" stop-color="#2d95fc"/><stop offset="0.23" stop-color="#2181eb"/><stop offset="0.74" stop-color="#095aca"/><stop offset="1" stop-color="#004bbd"/></linearGradient><linearGradient id="linear-gradient-2" x1="-0.89" y1="3.85" x2="41.32" y2="3.85" xlink:href="#linear-gradient"/><linearGradient id="linear-gradient-3" x1="3.37" y1="13.85" x2="34.18" y2="13.85" gradientUnits="userSpaceOnUse"><stop offset="0" stop-color="#004bbd"/><stop offset="0.09" stop-color="#0554c4"/><stop offset="0.48" stop-color="#1b77e3"/><stop offset="0.79" stop-color="#288df5"/><stop offset="1" stop-color="#2d95fc"/></linearGradient></defs><g id="Layer_2" data-name="Layer 2"><g id="Layer_1-2" data-name="Layer 1"><path d="M32.91,21.36A3.39,3.39,0,0,0,30,20.19H5.29A5,5,0,0,0,2.45,21,6.19,6.19,0,0,0,.56,23.33l0,.05a3.49,3.49,0,0,0-.23,3.21,3,3,0,0,0,2.9,1.31H28a5,5,0,0,0,2.88-.79,5.68,5.68,0,0,0,1.86-2.37C33,24.13,33.76,22.6,32.91,21.36Z" fill="url(#linear-gradient)"/><path d="M33,1.17A3.41,3.41,0,0,0,30.12,0H5.37A5,5,0,0,0,2.53.76,6.1,6.1,0,0,0,.65,3.14l0,0A3.52,3.52,0,0,0,.39,6.4,3.08,3.08,0,0,0,3.3,7.7H28a5.07,5.07,0,0,0,2.89-.78,5.72,5.72,0,0,0,1.85-2.38C33.09,3.94,33.85,2.41,33,1.17Z" fill="url(#linear-gradient-2)"/><path d="M28,11.17A3.41,3.41,0,0,0,25.12,10H9.37a5,5,0,0,0-2.84.76,6.1,6.1,0,0,0-1.88,2.38l0,0a3.52,3.52,0,0,0-.23,3.21A3.08,3.08,0,0,0,7.3,17.7H23a5.07,5.07,0,0,0,2.89-.78,5.72,5.72,0,0,0,1.85-2.38C28.09,13.94,28.85,12.41,28,11.17Z" fill="url(#linear-gradient-3)"/></g></g></svg>